<?xml version="1.0" encoding="UTF-8"?>
<svg xmlns="http://www.w3.org/2000/svg" viewBox="0 0 102 72">
  <defs>
    <style>
      .cls-1 {
        fill: none;
      }

      .cls-2 {
        fill: #00ac65;
      }

      .cls-3 {
        fill: #00aeef;
      }

      .cls-4 {
        fill: #009000;
      }

      .cls-5 {
        fill: #066b1e;
      }

      .cls-6 {
        fill: #ffe666;
      }

      .cls-6, .cls-7 {
        mix-blend-mode: multiply;
      }

      .cls-8 {
        isolation: isolate;
      }
    </style>
  </defs>
  <g class="cls-8">
    <g id="Layer_2" data-name="Layer 2">
      <g id="Layer_1-2" data-name="Layer 1">
        <g>
          <g>
            <path class="cls-1" d="M84.23,17.69c-8.69,0-17.38,0-26.06,0s-17.42,0-26.13,0c-.98,0-.98,0-.98,.93v6.97c2.61,1.64,4.81,3.87,6.43,6.49,1.64,0,3.27,0,4.91,0,.88,0,1.28,.38,1.29,1.26,.02,1.46,.02,2.91,0,4.37-.01,.89-.41,1.26-1.28,1.27-.75,0-1.49,0-2.24,0,.22,1.2,.35,2.44,.35,3.71h0c.65,.01,1.3,.01,1.95,.02,.83,.01,1.21,.45,1.21,1.29,.01,1.46,.02,2.91,0,4.37-.01,.9-.42,1.29-1.34,1.3-1.03,.01-2.06,0-3.09,0-.48,1.3-1.1,2.53-1.82,3.69,11.19,0,22.37,0,33.56,0,.26-7.73,6.47-13.93,14.2-14.17,0-6.85,0-13.7,0-20.55,0-.95,0-.95-.96-.95Zm-36.85,5.11c0-1.03,.39-1.41,1.44-1.42,2.04,0,4.07,0,6.1,0,.96,0,1.36,.38,1.38,1.34,.03,1.41,.03,2.82,0,4.23-.02,1.01-.4,1.37-1.41,1.4-1.04,.03-2.08,0-3.12,0h0c-.97,0-1.94,.02-2.91,0-1.1-.02-1.47-.39-1.47-1.47,0-1.36,0-2.73,0-4.09Zm8.89,15.13c-.02,.7-.44,1.04-1.14,1.04-2.2,.01-4.39,.01-6.59,0-.71,0-1.14-.4-1.15-1.11-.02-1.55-.02-3.1,0-4.65,.01-.75,.42-1.13,1.19-1.14,1.09-.01,2.17,0,3.26,0,1.09,0,2.17,0,3.26,0,.75,0,1.15,.32,1.18,1.07,.04,1.59,.04,3.19,0,4.78Zm.02,10.49c-.02,.87-.45,1.23-1.33,1.24-1.04,.01-2.08,0-3.12,0-1.04,0-2.08,0-3.12,0-.91-.01-1.32-.41-1.33-1.31-.01-1.46-.01-2.91,0-4.37,0-.84,.38-1.26,1.22-1.28,2.15-.03,4.3-.03,6.45,0,.85,.01,1.21,.41,1.23,1.28,.04,1.48,.04,2.96,0,4.44Zm16.29-25.71c.02-.96,.42-1.33,1.38-1.34,1.04,0,2.08,0,3.12,0,1.04,0,2.08-.01,3.12,0,.88,.01,1.27,.4,1.28,1.28,.02,1.48,.02,2.96,0,4.44,0,.8-.38,1.22-1.19,1.23-2.15,.03-4.3,.03-6.45,0-.88-.01-1.25-.44-1.27-1.32-.02-1.43-.03-2.87,0-4.3Zm-12.56,.03c0-.99,.36-1.36,1.33-1.37,2.06,0,4.12,0,6.19,0,.97,0,1.34,.38,1.34,1.35,0,1.41,0,2.83,0,4.24,0,.98-.34,1.35-1.33,1.38-1.04,.03-2.08,0-3.13,0h0c-1,0-1.99,.02-2.99,0-1.08-.02-1.41-.37-1.41-1.44,0-1.39,0-2.78,0-4.17Zm8.85,25.61c0,.92-.38,1.3-1.32,1.31-1.04,.01-2.08,0-3.13,0-1.04,0-2.08,.01-3.13,0-.88-.01-1.27-.4-1.28-1.28-.01-1.48-.01-2.97,0-4.45,0-.79,.32-1.21,1.11-1.22,2.2-.04,4.4-.04,6.6,0,.82,.01,1.13,.43,1.14,1.26,0,1.46,0,2.92,0,4.38Zm0-10.7c0,.96-.34,1.31-1.28,1.32-2.11,0-4.21,0-6.32,0-.87,0-1.24-.36-1.25-1.21-.01-1.5-.01-3.01,0-4.51,0-.81,.38-1.16,1.21-1.17,1.09-.01,2.18,0,3.26,0,1.02,0,2.04,0,3.05,0,.99,0,1.32,.34,1.32,1.35,0,1.41,0,2.82,0,4.24Zm12.62-.03c0,.99-.37,1.34-1.34,1.35-1.04,0-2.08,0-3.13,0-1.06,0-2.13,0-3.2,0-.78-.01-1.2-.34-1.22-1.12-.05-1.55-.05-3.1,0-4.65,.02-.81,.43-1.13,1.27-1.13,2.11,0,4.21,0,6.32,0,.93,0,1.29,.37,1.3,1.32,.01,1.41,.01,2.83,0,4.24Z"/>
            <path class="cls-1" d="M34.76,47.22c0-1.06-.01-2.11,0-3.17,0-.67,.22-1.08,.69-1.25,0-.04,0-.08,0-.12,0-4.16-1.68-7.93-4.4-10.67,0,6.63,0,13.26,0,19.9,0,1.23,.23,1.45,1.46,1.45,1.59,0,3.18,0,4.77,0l-3.6-3.6c.44-.8,.8-1.66,1.08-2.54Z"/>
            <path class="cls-2" d="M31.05,18.62c0-.93,0-.93,.98-.93,8.71,0,17.42,0,26.13,0s17.37,0,26.06,0c.96,0,.96,0,.96,.95,0,6.85,0,13.7,0,20.55,.16,0,.31-.02,.46-.02,1.25,0,2.46,.17,3.62,.47,0-7.84,0-15.69,0-23.53,0-1.67,.01-3.34,0-5-.02-2.89-1.78-4.91-4.64-5.18-1.54-.14-3.1-.05-4.65-.07-.5,0-.62,.29-.61,.72,0,1.11,.02,2.22,0,3.34-.05,2.12-1.68,3.71-3.8,3.7-2.08,0-3.74-1.64-3.77-3.74-.02-.97,0-1.95,0-2.92q0-1.09-1.12-1.09c-8.34,0-16.68,0-25.02,0-.16,0-.32,0-.49,0-.5-.02-.7,.21-.7,.71,.02,1.11,.02,2.22,0,3.34-.05,2.11-1.7,3.71-3.8,3.71-2.1,0-3.74-1.63-3.77-3.74-.01-1.09-.02-2.18,0-3.27,.01-.53-.16-.76-.71-.76-1.39,.02-2.78-.02-4.17,.02-3.31,.08-5,2.81-4.99,5.21,.02,4.19,.02,8.39,.03,12.58,1.41,.5,2.75,1.15,4,1.94v-6.97Z"/>
            <path class="cls-2" d="M70.99,53.36c-11.19,0-22.37,0-33.56,0-.02,.03-.03,.06-.05,.09l-.09-.09c-1.59,0-3.18,0-4.77,0-1.24,0-1.46-.22-1.46-1.45,0-6.63,0-13.26,0-19.9-1.16-1.17-2.51-2.13-3.99-2.88,0,7.71,0,15.43,0,23.14,0,.46-.02,.92,.1,1.38,.58,2.3,2.53,3.78,5.03,3.78,8.64,0,17.28,0,25.92,0,4.43,0,8.87,0,13.3,0-.29-1.15-.46-2.34-.46-3.58,0-.17,.02-.33,.03-.5Z"/>
            <path class="cls-2" d="M40.66,11.86c1.18,.01,2.03-.9,2.05-2.23,.01-1.22,0-2.45,0-3.68,0-1.2,0-2.4,0-3.61,0-1.37-.8-2.23-2.01-2.24-1.22,0-2.05,.85-2.06,2.21-.02,2.45-.02,4.9,0,7.35,.01,1.29,.87,2.19,2.02,2.2Z"/>
            <path class="cls-2" d="M75.66,11.86c1.13-.04,1.94-.94,1.95-2.19,.01-1.23,0-2.46,0-3.68s0-2.46,0-3.68c-.01-1.3-.77-2.16-1.92-2.19-1.23-.04-2.1,.73-2.13,2.06-.05,2.55-.05,5.1,0,7.64,.03,1.24,.97,2.09,2.1,2.05Z"/>
            <path class="cls-2" d="M73.84,28.34c2.15,.03,4.3,.03,6.45,0,.81-.01,1.18-.43,1.19-1.23,.02-1.48,.02-2.96,0-4.44,0-.88-.4-1.27-1.28-1.28-1.04-.02-2.08,0-3.12,0-1.04,0-2.08,0-3.12,0-.96,0-1.37,.38-1.38,1.34-.03,1.43-.02,2.87,0,4.3,.01,.88,.39,1.31,1.27,1.32Z"/>
            <path class="cls-2" d="M34.76,44.05c-.01,1.06,0,2.11,0,3.17,.44-1.4,.68-2.88,.69-4.41-.47,.17-.68,.57-.69,1.25Z"/>
            <path class="cls-2" d="M42.34,49.67c.92-.01,1.33-.4,1.34-1.3,.02-1.46,.02-2.91,0-4.37,0-.84-.38-1.27-1.21-1.29-.65,0-1.3-.01-1.95-.01,0,2.46-.45,4.81-1.26,6.98,1.03,0,2.06,0,3.09,0Z"/>
            <path class="cls-2" d="M55.05,42.72c-2.15-.04-4.3-.04-6.45,0-.84,.01-1.21,.44-1.22,1.28-.02,1.46-.02,2.91,0,4.37,0,.9,.42,1.3,1.33,1.31,1.04,.01,2.08,0,3.12,0,1.04,0,2.08,0,3.12,0,.88,0,1.31-.37,1.33-1.24,.04-1.48,.03-2.96,0-4.44-.02-.87-.39-1.26-1.23-1.28Z"/>
            <path class="cls-2" d="M48.85,28.36c.97,.02,1.94,0,2.91,0h0c1.04,0,2.08,.02,3.12,0,1.01-.03,1.39-.39,1.41-1.4,.03-1.41,.03-2.82,0-4.23-.02-.97-.42-1.34-1.38-1.34-2.03,0-4.07,0-6.1,0-1.04,0-1.43,.39-1.44,1.42,0,1.36,0,2.73,0,4.09,0,1.08,.37,1.45,1.47,1.47Z"/>
            <path class="cls-2" d="M61.42,28.36c1,.02,1.99,0,2.99,0h0c1.04,0,2.09,.02,3.13,0,.98-.03,1.32-.4,1.33-1.38,0-1.41,0-2.83,0-4.24,0-.97-.37-1.35-1.34-1.35-2.06,0-4.12,0-6.19,0-.96,0-1.32,.38-1.33,1.37,0,1.39,0,2.78,0,4.17,0,1.07,.33,1.41,1.41,1.44Z"/>
            <path class="cls-2" d="M67.72,42.72c-2.2-.04-4.4-.04-6.6,0-.78,.01-1.1,.43-1.11,1.22-.01,1.48-.01,2.97,0,4.45,0,.88,.39,1.27,1.28,1.28,1.04,.01,2.08,0,3.13,0,1.04,0,2.09,.01,3.13,0,.93-.01,1.31-.39,1.32-1.31,0-1.46,0-2.92,0-4.38,0-.84-.32-1.25-1.14-1.26Z"/>
            <path class="cls-2" d="M42.4,38.98c.87,0,1.27-.39,1.28-1.27,.02-1.46,.02-2.91,0-4.37-.01-.88-.41-1.26-1.29-1.26-1.64,0-3.27,0-4.91,0,1.29,2.08,2.21,4.41,2.67,6.9,.75,0,1.49,0,2.24,0Z"/>
            <path class="cls-2" d="M55.09,32.08c-1.09-.01-2.17,0-3.26,0-1.09,0-2.17,0-3.26,0-.77,0-1.18,.38-1.19,1.14-.02,1.55-.02,3.1,0,4.65,.01,.71,.43,1.11,1.15,1.11,2.2,.01,4.39,.01,6.59,0,.7,0,1.12-.34,1.14-1.04,.05-1.59,.05-3.19,0-4.78-.02-.75-.43-1.06-1.18-1.07Z"/>
            <path class="cls-2" d="M80.19,32.08c-2.11,0-4.21,0-6.32,0-.84,0-1.25,.32-1.27,1.13-.05,1.55-.04,3.1,0,4.65,.02,.77,.44,1.11,1.22,1.12,1.07,.01,2.13,0,3.2,0,1.04,0,2.08,0,3.13,0,.97,0,1.34-.36,1.34-1.35,.01-1.41,.01-2.83,0-4.24,0-.95-.37-1.31-1.3-1.32Z"/>
            <path class="cls-2" d="M67.54,32.08c-1.02,0-2.04,0-3.05,0-1.09,0-2.18,0-3.26,0-.83,0-1.2,.36-1.21,1.17-.02,1.5-.01,3.01,0,4.51,0,.85,.38,1.21,1.25,1.21,2.11,0,4.21,0,6.32,0,.94,0,1.28-.36,1.28-1.32,0-1.41,0-2.82,0-4.24,0-1.01-.33-1.34-1.32-1.35Z"/>
            <g class="cls-7">
              <path class="cls-3" d="M3.21,31.92C1.24,35.03,.07,38.72,.07,42.69c0,11.17,9.05,20.22,20.22,20.22v7.58l10.11-10.11-10.11-10.11v7.58c-8.36,0-15.16-6.8-15.16-15.16,0-2.55,.63-4.98,1.77-7.08l-3.69-3.69h0Z"/>
            </g>
            <g class="cls-7">
              <path class="cls-3" d="M20.29,14.89l-10.11,10.11,10.11,10.11v-7.58c2.44,0,4.73,.59,6.77,1.62,0-1.83,0-3.66-.01-5.49-2.12-.75-4.39-1.18-6.76-1.18v-7.58h0Z"/>
            </g>
            <g class="cls-7">
              <path class="cls-3" d="M31.05,25.59c0,2.14,0,4.28,0,6.42,2.72,2.74,4.4,6.51,4.4,10.67,0,.04,0,.08,0,.12,.16-.06,.34-.09,.56-.09,.98-.02,1.97-.02,2.95-.02,.52,0,1.03,0,1.55,0h0c0-1.28-.13-2.51-.35-3.71-.06,0-.12,0-.18,0-.25,0-.5,0-.74,0h-.03c-.64,0-1.27,0-1.91,0-.42,0-.85,0-1.27,0-.84,0-1.24-.37-1.25-1.23-.02-1.48-.02-2.96,0-4.44,.01-.88,.41-1.23,1.31-1.23,.11,0,.23,0,.34,0,.28,0,.57,0,.85,0,.07,0,.15,0,.22,0-1.62-2.62-3.82-4.84-6.43-6.49h0Z"/>
            </g>
            <g class="cls-7">
              <path class="cls-3" d="M34.76,47.22c-.28,.89-.64,1.74-1.08,2.54l3.6,3.6h.14c.72-1.16,1.34-2.39,1.82-3.69-.01,0-.02,0-.04,0-.62,0-1.25,0-1.87,0-.4,0-.79,0-1.19,0-1,0-1.39-.38-1.4-1.39,0-.36,0-.71,0-1.07h0Z"/>
            </g>
            <g class="cls-7">
              <path class="cls-3" d="M37.43,53.36h-.14l.09,.09s.03-.06,.05-.09h0Z"/>
            </g>
            <path class="cls-5" d="M31.05,25.59c-1.25-.79-2.59-1.44-4-1.94,0,1.83,.01,3.66,.01,5.49,1.48,.74,2.83,1.71,3.99,2.88,0-2.14,0-4.28,0-6.42Z"/>
            <path class="cls-5" d="M35.45,42.8c-.01,1.53-.25,3.02-.69,4.41,0,.36,0,.71,0,1.07,.01,1.01,.4,1.38,1.4,1.39,1.02,0,2.04,0,3.05,0,.01,0,.02,0,.04,0,.81-2.17,1.26-4.52,1.26-6.98-1.5,0-3,0-4.5,.02-.22,0-.4,.03-.56,.09Z"/>
            <path class="cls-5" d="M34.76,33.31c-.02,1.48-.02,2.96,0,4.44,.01,.85,.41,1.22,1.25,1.23,1.06,.01,2.13,0,3.19,0,.32,0,.63,0,.95,0-.46-2.49-1.39-4.82-2.67-6.9-.47,0-.94,0-1.4,0-.9,0-1.3,.35-1.31,1.23Z"/>
            <path class="cls-6" d="M89.28,39.64c0,4.15,0,8.31,0,12.46,0,2.38-1.16,4.18-3.2,4.98-.7,.28-1.43,.36-2.18,.36-4.16,0-8.32,0-12.48,0,1.6,6.38,7.36,11.11,14.23,11.11,8.11,0,14.69-6.58,14.69-14.69,0-6.86-4.71-12.6-11.07-14.22Z"/>
            <path class="cls-6" d="M70.99,53.36c4.25,0,8.5,0,12.75,0,1.28,0,1.45-.17,1.45-1.43v-12.74c-7.73,.24-13.94,6.44-14.2,14.17Z"/>
            <path class="cls-4" d="M86.08,57.09c2.04-.8,3.2-2.6,3.2-4.98,0-4.15,0-8.31,0-12.46-1.16-.3-2.37-.47-3.62-.47-.16,0-.31,.02-.46,.02v12.74c0,1.26-.17,1.43-1.45,1.43-4.25,0-8.5,0-12.75,0,0,.17-.03,.33-.03,.5,0,1.24,.17,2.43,.46,3.58,4.16,0,8.32,0,12.48,0,.75,0,1.48-.08,2.18-.36Z"/>
          </g>
          <rect class="cls-1" width="102" height="72"/>
        </g>
      </g>
    </g>
  </g>
</svg>