<?xml version="1.0" encoding="UTF-8"?>
<svg xmlns="http://www.w3.org/2000/svg" viewBox="0 0 1870.5 577.49">
  <defs>
    <style>
      .cls-1, .cls-2 {
        fill: #00a3e4;
      }

      .cls-3 {
        fill: #ea088b;
      }

      .cls-4 {
        fill: #fff;
      }

      .cls-5 {
        stroke: #fff;
        stroke-width: 12.52px;
      }

      .cls-5, .cls-6, .cls-7 {
        fill: none;
        stroke-miterlimit: 10;
      }

      .cls-8 {
        fill: #efefef;
      }

      .cls-8, .cls-9, .cls-10, .cls-2, .cls-11, .cls-12, .cls-13, .cls-6, .cls-7 {
        mix-blend-mode: multiply;
      }

      .cls-9 {
        fill: #ffde33;
      }

      .cls-10 {
        fill: #00ac65;
      }

      .cls-11, .cls-13 {
        fill: #f58520;
      }

      .cls-13, .cls-14 {
        opacity: .6;
      }

      .cls-15 {
        fill: #004789;
        mix-blend-mode: hard-light;
      }

      .cls-16 {
        opacity: .5;
      }

      .cls-17 {
        isolation: isolate;
      }

      .cls-6 {
        stroke-width: 19.99px;
      }

      .cls-6, .cls-7 {
        opacity: .3;
        stroke: #71c284;
      }

      .cls-7 {
        stroke-width: 19.26px;
      }
    </style>
  </defs>
  <g class="cls-17">
    <g id="Layer_2" data-name="Layer 2">
      <g id="Layer_1-2" data-name="Layer 1">
        <g>
          <g>
            <g class="cls-16">
              <path class="cls-8" d="M1172.86,72.79h136.79c8.84,0,16.01,7.17,16.01,16.01V222.69c0,8.84-7.17,16.01-16.01,16.01h-136.79c-7.24,0-13.12-5.88-13.12-13.12V85.91c0-7.24,5.88-13.12,13.12-13.12Z" transform="translate(1398.44 -1086.95) rotate(90)"/>
            </g>
            <g class="cls-16">
              <path class="cls-8" d="M1003.59,242.06h136.79c8.84,0,16.01,7.17,16.01,16.01v133.89c0,8.84-7.17,16.01-16.01,16.01h-136.79c-7.24,0-13.12-5.88-13.12-13.12V255.17c0-7.24,5.88-13.12,13.12-13.12Z" transform="translate(1398.44 -748.41) rotate(90)"/>
            </g>
            <g class="cls-16">
              <path class="cls-8" d="M1172.86,242.06h136.79c8.84,0,16.01,7.17,16.01,16.01v133.89c0,8.84-7.17,16.01-16.01,16.01h-136.79c-7.24,0-13.12-5.88-13.12-13.12V255.17c0-7.24,5.88-13.12,13.12-13.12Z" transform="translate(1567.71 -917.68) rotate(90)"/>
            </g>
            <path class="cls-8" d="M1342.13,242.06h136.79c8.84,0,16.01,7.17,16.01,16.01v133.89c0,8.84-7.17,16.01-16.01,16.01h-136.79c-7.24,0-13.12-5.88-13.12-13.12V255.17c0-7.24,5.88-13.12,13.12-13.12Z" transform="translate(1736.98 -1086.95) rotate(90)"/>
            <path class="cls-8" d="M665.04,411.33h136.79c8.84,0,16.01,7.17,16.01,16.01v133.89c0,8.84-7.17,16.01-16.01,16.01h-136.79c-7.24,0-13.12-5.88-13.12-13.12v-139.68c0-7.24,5.88-13.12,13.12-13.12Z" transform="translate(1229.16 -240.6) rotate(90)"/>
            <path class="cls-8" d="M834.31,411.33h136.79c8.84,0,16.01,7.17,16.01,16.01v133.89c0,8.84-7.17,16.01-16.01,16.01h-136.79c-7.24,0-13.12-5.88-13.12-13.12v-139.68c0-7.24,5.88-13.12,13.12-13.12Z" transform="translate(1398.44 -409.87) rotate(90)"/>
            <g class="cls-16">
              <path class="cls-8" d="M1003.59,411.33h136.79c8.84,0,16.01,7.17,16.01,16.01v133.89c0,8.84-7.17,16.01-16.01,16.01h-136.79c-7.24,0-13.12-5.88-13.12-13.12v-139.68c0-7.24,5.88-13.12,13.12-13.12Z" transform="translate(1567.71 -579.14) rotate(90)"/>
            </g>
            <g class="cls-16">
              <path class="cls-8" d="M1172.86,411.33h136.79c8.84,0,16.01,7.17,16.01,16.01v133.89c0,8.84-7.17,16.01-16.01,16.01h-136.79c-7.24,0-13.12-5.88-13.12-13.12v-139.68c0-7.24,5.88-13.12,13.12-13.12Z" transform="translate(1736.98 -748.41) rotate(90)"/>
            </g>
            <path class="cls-8" d="M1342.13,411.33h136.79c8.84,0,16.01,7.17,16.01,16.01v133.89c0,8.84-7.17,16.01-16.01,16.01h-136.79c-7.24,0-13.12-5.88-13.12-13.12v-139.68c0-7.24,5.88-13.12,13.12-13.12Z" transform="translate(1906.25 -917.69) rotate(90)"/>
            <path class="cls-8" d="M1511.4,411.33h136.79c8.84,0,16.01,7.17,16.01,16.01v133.89c0,8.84-7.17,16.01-16.01,16.01h-136.79c-7.24,0-13.12-5.88-13.12-13.12v-139.68c0-7.24,5.88-13.12,13.12-13.12Z" transform="translate(2075.52 -1086.96) rotate(90)"/>
          </g>
          <g>
            <line class="cls-6" x1="470.07" y1="378.99" x2="1186.82" y2="378.99"/>
            <line class="cls-6" y1="421.17" x2="920.99" y2="421.17"/>
            <line class="cls-6" y1="460.99" x2="920.99" y2="460.99"/>
            <line class="cls-6" x1="684.46" y1="567.2" x2="958.79" y2="567.2"/>
            <line class="cls-6" x1="900.86" y1="288.79" x2="1127.35" y2="288.79"/>
          </g>
          <line class="cls-7" x1="1184.04" y1="567.86" x2="1870.5" y2="567.86"/>
          <path class="cls-15" d="M1295.47,141.08c-.97-26.54-11.17-36.66-11.17-36.66,0,0,0,0-.01,0-.81-1.29-1.77-2.36-2.9-3.16,0,0,.16-16.99-11.49-25.25,0,0-1.46-18.94-18.94-25.41,0,0,4.21-7.93-21.04-8.09,3.56-3.88-10.2-29.46-27.19-2.43l-7.77-.49s1.13-12.14-12.95-3.88c0,0-10.28-.47-14.89,5.99-4.05,5.66-8.09-.81-8.09-.81,0,0-8.28-6.28-19.91,7.28-5.83,6.8-11.65,2.43-11.65,2.43,0,0-14.24,.97-15.21,20.88,0,0-4.21,1.62-1.29,6.96,0,0-6.8,1.46-6.31,9.71,0,0-8.9,6.31-15.7,7.93-3.1,.74-6.8,11.33-6.8,11.33,0,0-32.53,16.19-37.39,41.43,0,0-1.94,7.45-7.12,11.98-1.41,1.23-2.14,4.38-2.25,7.81l-13.77-3.28c-7.04-.32-6.88,4.45-6.88,4.45-.57,6.31-1.38,4.21-3.32,6.72-.57,1.21,0,4.05,0,4.05,2.02,3.97,1.62,7.77,1.62,7.77,.86,19.15,6.65,23.96,9.4,25.17-.27,2.25-.34,4.5,.15,5.91,0,0-3.56,2.91-4.53,2.27-.97-.65-5.99,10.36,3.88,13.6l.32,1.78s-10.03-.81-7.28,6.8c0,0,.16,2.27,2.75,3.56,0,0,.81,8.09-.32,9.87,0,0-5.18,15.05,11.82,16.83,0,0,7.77,.81,9.23,0,0,0,6.15,3.08,15.54,1.78,0,0,14.24,1.62,12.95,8.74,0,0,.49,6.64,3.08,8.09l2.27,4.69s-2.75,.16-2.43,2.27c.88,5.74,7.12,16.67,6.8,27.68,0,0-2.18-.34-2.75,.49-.79,1.14-.16,4.86-.16,4.86,0,0-13.92,13.27-17.16,16.83l-25.25,28.16s-9.71-4.37-24.76,6.96c0,0-17.05-31.55-18.02-39.32-.97-7.77-23.83-68.63-23.34-73.33,0,0-4.82-10.83-3.08-16.99,1.58-5.58,.2-40.14,.32-49.61,.01-1.08-2.95-1.69-3.4-2.67-.32-.7,.12-2.57-.49-3.03-6.92-5.34-23.19-11.17-28.28-17.97,0,0-23.31-11.9-27.56-12.02-.46-.01-.73,1.7-.73,1.7l-29.05-25.17s-1.17-.08-2.27,1.13c-.67,.75-.13-.9-1.13-1.13-.79-.18-9.19-5.53-10.36-4.37s4.59,8.54,4.69,9.39c.11,.93,1.87,.95,1.34,1.7-.93,1.29-.2,2.35-.2,2.35l36.74,31.4s3.08,10.03,5.66,12.3c2.59,2.27,4.21,9.39,4.21,9.39,0,0-4.61,7.93,.57,14.73,0,0-1.21,9.23,2.19,10.44,0,0-2.43,14.32,6.8,8.01,0,0,5.58,20.39,13.11,26.95,0,0,3.81,13.44,3.64,17.97,0,0,7.7,129.16,22.83,143l-.97,15.21s9.95,2.1,12.54,8.58c0,0-27.43,32.53-14.08,70.89l7.69,18.94s-23.47-27.43-27.19-46.61c-1.78-4.34-5.5-4.69-6.23-17.72-2.91-8.58-10.68-34.37-15.05-37.15-2.43-1.54-13.6-16.75-18.53-23.47-1.64-2.24-8.03,.31-11.09-.57-2.48-.71-10.93-5.34-10.93-5.34,0,0-2.27,4.61-.97,6.55s-8.74-6.55-15.54,3.88c-4.82,7.41,5.5,16.83,5.5,16.83,0,0-4.53,2.59-3.24,10.68,0,0-5.18,2.91-2.91,13.27,0,0-6.8,3.24-3.88,13.6,0,0-2.51,10.93,3.8,16.02l36.66,24.44s3.47,6.3,3.56,10.36c8.34,10.84,30.1,49.53,30.1,49.53h254.03s47.67-116.21,11.41-201.67c-4.05-15.35,3.95-48.56-11.65-55.03-13.27-5.5-5.18-26.54-7.77-31.4-1.21-2.27-8.74-.65-8.74-.65l-2.91-16.75s2.26-12.94,5.83-14.57c9.39-4.29,30.43,21.93,73.8-52.2,0,0,3.84-8.23,7.77-5.83,5.83,3.56,16.83,1.29,20.72-9.71,0,0,10.14,.86,11.22-8.52,16.4-6.66,11.76-40.03,11.76-40.03Zm-258.14,29.69c.07,1.83,.31,3.65,.71,5.23l-2.3,.08c-.42-2.65-1.83-5.87-1.83-5.87l3.42,.56Zm-15.73-2.74c5.83-2.91,11.09,6.15,11.09,6.15,.13,.67,.24,1.34,.33,2l-12.58,.46c-.03-.54-.1-1.07-.22-1.57-1.37-3.88,1.38-7.04,1.38-7.04Zm2.91,39.98c-4.45-5.75-5.93-15.59-4.94-24.12,.37-1.91,.68-3.56,.82-5.03l12.88-.49c.57,6.32-.28,12.24-1.57,17.15-1.76-.35-8.44-.95-5.9,10.62,0,0-.24,.89-.54,2.22l-.76-.36Zm13.11-23.9v-5.89l1.14-.04c.24,.55,.51,1.04,.81,1.43,0,0-1.23,1.91-1.94,4.5Zm-139.36,259.72s-12.38-10.2-13.6-9.47c-1.21,.73-1.21-2.43-1.21-2.43l6.56,.49s6.31,9.23,8.74,8.98l-.49,2.43Zm299.75-198.19c11.01-3.56,22.98-18.45,22.98-18.45-2.27,23.95-33.99,22.01-22.98,18.45Zm96.79-92.9c.16,3.1-2.29,6.61-4.76,9.34,.49-1.82,.82-3.77,.87-5.78,2.81-1.26,3.9-3.56,3.9-3.56Zm-4.77-18.13c4.25,8.89,2.92,14.53,.6,17.92-.32-1.88-.95-3.78-1.98-5.62,0,0,.89-5.28,1.39-12.3Zm-4.52,42.14c-.15-1.11-.39-2.31-.75-3.62,0,0,1.49-1.97,3-5.06,4.46-2.69,7.03-8.54,7.03-8.54,.76,9.16-6.25,15.1-9.29,17.22Z"/>
          <path class="cls-9" d="M1183.53,577.43h259.12s56.8-133.31,19.02-227.19c-34.87-86.65-21.66-55.48-66.57-120.99,0,0-7.81-2.8-14.73-39.92-.16-.87-.83-1.47-1.62-1.65,1.85-4.59,3.62-8.54,4.7-9.81,3.74-4.44,10.03,.71,21.63-25.4,0,0,64.2-91.11-37.23-141.25-9.55-4.72-18.55-1.12-49.95-8.35-24.61-5.67-29.11-3.1-60.26,9.33,0,0-15.3,22.79,1.33,28.85,0,0-36.06,40.02-27.63,48.36,0,0,2.48,7.88-6.85,14.38,0,0-10.07,12.63-15.45,12.8,0,0-10.21,10.5,6.91,16.71,0,0,4.43,8.51-2.67,12.47,0,0-.15,8.06,5.13,9.65,0,0-8.42,5.42,0,11.49,2.71,3.56-16,19.47-5.34,28.98,0,0,7.09,6.88,10.38,7.99,8.01,2.71,29.06,5.68,29.06,5.68,0,0,8.58,.32,10.1,2.42,3.15,4.37-1.66,21.2-1.84,21.83-6.21,4.66-12.74,9.52-14.86,10.96-10.5,7.13-1.78,16.45-1.78,16.45l8.52,14.82c.39,.67,.57,1.45,.52,2.23l-.64,9.67c-.04,.67-.29,1.3-.72,1.81-5.31,6.44-39.51,51.2-42.94,58.66-28.9,62.94-25.34,229.04-25.34,229.04Z"/>
          <path class="cls-2" d="M1328.96,402.17v-141.18c0-81.89,65.5-149.76,147.39-150.37,82.54-.61,149.64,66.11,149.64,148.51s-66.49,148.51-148.51,148.51h-143.05c-3.02,0-5.46-2.45-5.46-5.46Zm274.44-140.67c1.32-71.45-56.87-129.65-128.32-128.32-67.34,1.25-122.29,56.2-123.54,123.54-1.33,71.46,56.87,129.65,128.32,128.32,67.34-1.25,122.29-56.2,123.54-123.54Z"/>
          <g>
            <path class="cls-10" d="M916.99,370.56h-60.02c-2.2,0-4,1.69-4,3.76v199.16c0,2.07,1.8,3.76,4,3.76h60.02c2.2,0,4-1.69,4-3.76v-199.16c0-2.07-1.8-3.76-4-3.76Z"/>
            <path class="cls-10" d="M817.2,430.69h-60.02c-2.2,0-4,1.87-4,4.16v138.22c0,2.29,1.8,4.16,4,4.16h60.02c2.2,0,4-1.87,4-4.16v-138.22c0-2.29-1.8-4.16-4-4.16Z"/>
            <rect class="cls-10" x="652.71" y="493.62" width="68.02" height="83.62" rx="4" ry="4"/>
          </g>
          <polygon class="cls-10" points="966.93 278.7 937.15 278.7 938.72 298.68 973.14 298.68 966.93 278.7"/>
          <circle class="cls-4" cx="954.57" cy="288.79" r="10.31"/>
          <g class="cls-12">
            <rect class="cls-11" x="1437.73" y="519.95" width="299.43" height="57.29" rx="4.08" ry="4.08"/>
            <rect class="cls-11" x="1300.11" y="436.57" width="321.15" height="57.29" rx="4.2" ry="4.2"/>
            <path class="cls-3" d="M1666.06,434.58l18.29,29.49c.44,.71,.44,1.61,0,2.32l-18.29,29.49c-.86,1.39-2.87,1.39-3.73,0l-18.29-29.49c-.44-.71-.44-1.61,0-2.32l18.29-29.49c.86-1.39,2.87-1.39,3.73,0Z"/>
            <g class="cls-16">
              <circle class="cls-4" cx="1339.05" cy="465.22" r="8.42"/>
              <line class="cls-5" x1="1367.08" y1="465.22" x2="1506.64" y2="465.22"/>
            </g>
            <g class="cls-16">
              <circle class="cls-4" cx="1474.1" cy="548.59" r="8.42"/>
              <line class="cls-5" x1="1502.13" y1="548.59" x2="1641.69" y2="548.59"/>
            </g>
            <path class="cls-13" d="M1474.09,407.63h-283.08c-2.32,0-4.2-1.88-4.2-4.2v-48.89c0-2.32,1.88-4.2,4.2-4.2h270.65s10.59,27.27,12.43,57.29Z"/>
            <g class="cls-16">
              <circle class="cls-4" cx="1225.76" cy="378.99" r="8.42"/>
              <line class="cls-5" x1="1253.79" y1="378.99" x2="1393.34" y2="378.99"/>
            </g>
          </g>
          <polygon class="cls-11" points="1287.31 459.64 1250.25 459.64 1268.78 479.89 1287.31 459.64"/>
          <g id="FLZl6b" class="cls-14">
            <g>
              <path class="cls-4" d="M1090.69,577.43c-27.85,0-55.7,.01-83.55,0-8.07,0-14.35-4.77-16.23-12.18-.38-1.48-.32-2.96-.32-4.45,0-44.28,.11-88.56-.12-132.84-.04-7.72,5.39-16.52,16.07-16.78,4.48-.11,8.96,.01,13.44-.05,1.77-.02,2.33,.74,2.29,2.44-.08,3.51-.06,7.02,0,10.53,.09,6.79,5.4,12.04,12.16,12.05,6.78,.01,12.1-5.14,12.25-11.95,.08-3.58,.07-7.17,.01-10.75-.03-1.62,.63-2.36,2.24-2.3,.52,.02,1.05,0,1.57,0,26.88,0,53.76,0,80.64,0q3.61,0,3.62,3.53c0,3.14-.04,6.27,.02,9.41,.13,6.78,5.45,12.04,12.17,12.07,6.81,.03,12.09-5.07,12.24-11.92,.08-3.58,.05-7.17,.02-10.75,0-1.4,.37-2.34,1.98-2.32,5,.06,10.03-.24,14.99,.21,9.23,.85,14.89,7.37,14.96,16.69,.04,5.38,0,10.75,0,16.13,0,38.68,0,77.36,0,116.04,0,7.69-3.73,13.47-10.31,16.06-2.26,.89-4.61,1.15-7.02,1.15-27.7,0-55.4,0-83.11,0Zm.15-128.13c-28.08,0-56.15,0-84.23,0q-3.15,0-3.16,3.01c0,35.77,0,71.54,0,107.31,0,3.96,.73,4.67,4.71,4.67,55.03,0,110.07,0,165.1,0,4.14,0,4.69-.54,4.69-4.61,0-35.77,0-71.54,0-107.31,0-3.06,0-3.07-3.11-3.07-28,0-56.01,0-84.01,0Z"/>
              <path class="cls-4" d="M1041.01,411.45c0,3.95,.04,7.9-.01,11.85-.05,4.3-2.78,7.24-6.6,7.2-3.72-.04-6.48-2.94-6.51-7.09-.06-7.9-.06-15.8,0-23.69,.03-4.37,2.69-7.13,6.63-7.11,3.92,.02,6.46,2.82,6.49,7.22,.03,3.87,0,7.75,0,11.62Z"/>
              <path class="cls-4" d="M1153.53,411.54c0,3.96,.03,7.92,0,11.87-.04,4.05-2.65,6.96-6.28,7.07-3.62,.12-6.68-2.61-6.76-6.61-.17-8.21-.17-16.43,0-24.64,.09-4.28,2.9-6.75,6.85-6.64,3.71,.11,6.15,2.86,6.19,7.07,.04,3.96,0,7.92,0,11.87Z"/>
              <path class="cls-4" d="M1151.82,461.21c3.36,0,6.71-.04,10.06,.01,2.83,.04,4.1,1.3,4.13,4.14,.05,4.77,.05,9.54,0,14.31-.03,2.59-1.21,3.93-3.83,3.97-6.93,.11-13.87,.11-20.8,0-2.82-.05-4.04-1.41-4.09-4.26-.07-4.62-.08-9.25,0-13.87,.06-3.09,1.37-4.28,4.46-4.3,3.35-.03,6.71,0,10.06,0Z"/>
              <path class="cls-4" d="M1029.75,552.4c-3.28,0-6.56,.02-9.84,0-3.22-.03-4.47-1.22-4.51-4.48-.06-4.55-.06-9.1,0-13.64,.04-2.88,1.2-4.26,4.02-4.3,6.93-.12,13.87-.12,20.8-.02,2.69,.04,3.89,1.44,3.92,4.15,.05,4.7,.05,9.39,0,14.09-.03,2.91-1.36,4.16-4.32,4.2-3.35,.04-6.71,0-10.07,0Z"/>
              <path class="cls-4" d="M1070.42,552.4c-3.35,0-6.71,.03-10.06-.01-2.94-.04-4.26-1.32-4.29-4.23-.05-4.7-.05-9.39,0-14.09,.03-2.71,1.22-4.08,3.94-4.12,6.93-.1,13.87-.1,20.8,.01,2.73,.05,3.91,1.32,3.98,4.11,.12,4.77,.12,9.54,0,14.31-.07,2.8-1.45,3.97-4.3,4-3.35,.04-6.71,0-10.06,0Z"/>
              <path class="cls-4" d="M1070.19,483.71c-3.13,0-6.26,.04-9.39-.01-3.54-.06-4.73-1.26-4.74-4.73-.02-4.4-.03-8.8,0-13.19,.02-3.32,1.27-4.56,4.63-4.57,6.56-.02,13.12-.03,19.68,0,3.09,.01,4.38,1.21,4.44,4.33,.09,4.55,.09,9.09,0,13.64-.07,3.24-1.28,4.42-4.55,4.5-3.35,.09-6.71,.02-10.06,.02,0,0,0,0,0,.01Z"/>
              <path class="cls-4" d="M1110.97,483.71c-3.21,0-6.42,.05-9.63-.01-3.47-.08-4.53-1.2-4.54-4.63-.01-4.48-.02-8.96,0-13.44,.01-3.18,1.17-4.4,4.27-4.41,6.65-.03,13.29-.03,19.94,0,3.13,.01,4.31,1.21,4.32,4.36,.02,4.55,.02,9.11,0,13.66-.01,3.16-1.11,4.36-4.28,4.45-3.36,.09-6.72,.02-10.08,.02h0Z"/>
              <path class="cls-4" d="M1110.99,552.4c-3.36,0-6.72,.03-10.08,0-2.85-.03-4.09-1.28-4.11-4.12-.03-4.78-.03-9.56,0-14.34,.02-2.56,1.05-3.89,3.57-3.94,7.09-.13,14.19-.14,21.28-.01,2.64,.05,3.66,1.38,3.67,4.07,.03,4.7,.03,9.41,0,14.11-.02,2.96-1.24,4.18-4.25,4.22-3.36,.04-6.72,0-10.08,.01Z"/>
              <path class="cls-4" d="M1029.73,517.93c-3.43,0-6.86,.03-10.28,0-2.72-.03-3.99-1.21-4.03-3.96-.08-4.77-.08-9.54,0-14.31,.05-2.84,1.32-3.97,4.23-3.98,6.78-.02,13.56-.02,20.34,0,2.84,0,4.11,1.21,4.15,4.06,.06,4.69,.06,9.39,0,14.08-.04,2.85-1.31,4.07-4.13,4.1-3.43,.03-6.85,0-10.28,0Z"/>
              <path class="cls-4" d="M1070.43,495.68c3.5,0,7-.03,10.51,0,2.42,.03,3.72,1.04,3.79,3.45,.15,5.13,.14,10.28-.01,15.41-.07,2.26-1.41,3.34-3.68,3.35-7.08,.05-14.16,.05-21.23,0-2.31-.01-3.66-1.3-3.7-3.58-.08-4.99-.08-9.98,0-14.98,.04-2.43,1.35-3.63,3.83-3.66,3.5-.04,7-.01,10.51-.01Z"/>
              <path class="cls-4" d="M1151.61,517.93c-3.43,0-6.87,.03-10.3-.01-2.52-.03-3.87-1.11-3.94-3.6-.15-5-.15-10,0-15,.08-2.62,1.4-3.63,4.1-3.64,6.79-.02,13.59-.02,20.38,0,3,0,4.16,1.19,4.18,4.24,.03,4.55,.04,9.11,0,13.66-.03,3.18-1.2,4.32-4.34,4.34-3.36,.02-6.72,0-10.08,0Z"/>
              <path class="cls-4" d="M1111.23,495.68c3.28,0,6.56-.02,9.85,0,3.18,.02,4.24,1.1,4.25,4.34,.02,4.55,.02,9.1,0,13.65-.02,3.1-1.11,4.24-4.14,4.25-6.79,.02-13.58,.03-20.37,0-2.81-.01-4-1.15-4.02-3.9-.04-4.85-.05-9.7,0-14.55,.03-2.62,1.22-3.75,3.9-3.78,3.51-.04,7.01,0,10.52-.01Z"/>
            </g>
          </g>
          <g class="cls-12">
            <path class="cls-1" d="M1468.96,234.86c0-7.58-.03-15.17,.01-22.75,.02-4.47,2.33-7.73,6.04-8.73,5.2-1.4,9.93,2.17,10.36,7.84,.06,.74,.03,1.48,.03,2.22,0,12.58,.04,25.16-.04,37.73-.01,1.8,.6,2.76,2.21,3.54,8.09,3.95,16.13,7.99,24.16,12.05,3.93,1.98,5.81,5.5,5.03,9.14-1.09,5.12-6.25,7.92-11.11,5.97-1.65-.66-3.22-1.55-4.82-2.35-8.71-4.35-17.39-8.78-26.15-13.03-3.96-1.93-5.77-4.92-5.75-9.26,.05-7.46,.01-14.92,.02-22.38Z"/>
            <g>
              <circle class="cls-1" cx="1477.47" cy="175.85" r="6.28"/>
              <circle class="cls-1" cx="1477.47" cy="342.39" r="6.28"/>
            </g>
            <g>
              <circle class="cls-1" cx="1394.21" cy="259.12" r="6.28"/>
              <circle class="cls-1" cx="1560.74" cy="259.12" r="6.28"/>
            </g>
            <g>
              <circle class="cls-1" cx="1435.84" cy="187.01" r="6.28"/>
              <circle class="cls-1" cx="1519.11" cy="331.23" r="6.28"/>
            </g>
            <g>
              <circle class="cls-1" cx="1405.36" cy="300.75" r="6.28"/>
              <circle class="cls-1" cx="1549.59" cy="217.49" r="6.28"/>
            </g>
            <g>
              <circle class="cls-1" cx="1405.36" cy="217.49" r="6.28"/>
              <circle class="cls-1" cx="1549.59" cy="300.75" r="6.28"/>
            </g>
            <g>
              <circle class="cls-1" cx="1435.84" cy="331.23" r="6.28"/>
              <circle class="cls-1" cx="1519.11" cy="187.01" r="6.28"/>
            </g>
          </g>
        </g>
      </g>
    </g>
  </g>
</svg>