<svg width="30" height="30" viewBox="0 0 30 30" fill="none" xmlns="http://www.w3.org/2000/svg">
<g clip-path="url(#clip0_106_222)">
<path d="M20.6261 16.271V16.578C20.6261 20.2427 17.6449 23.224 13.9801 23.224H13.975C12.6083 23.2231 11.2967 22.8112 10.1817 22.0325L9.9301 21.8568L6.68408 26.5044L6.93586 26.6801C8.92454 28.0694 11.2481 28.828 13.673 28.8873V28.8932H13.9801H14.2871V28.8854C20.9358 28.7213 26.2951 23.2656 26.2951 16.578V16.271H20.6261Z" stroke="#413E3B" stroke-width="1.75"/>
<path d="M13.4792 3.91754C6.79175 3.91754 1.33631 9.27676 1.17236 15.9255H1.16455V16.2325V16.5396H1.16924C1.26682 20.4455 3.219 24.0893 6.43516 26.335L6.68675 26.5106L9.93237 21.8627L9.68059 21.687C7.89763 20.442 6.83332 18.4029 6.83332 16.2327C6.83332 14.4605 7.52543 12.7923 8.78218 11.5356C10.0387 10.2788 11.7065 9.5867 13.4786 9.5867H13.786V3.91754H13.4792Z" stroke="#413E3B" stroke-width="1.75"/>
<path d="M28.8225 12.913C28.5608 6.54475 23.3667 1.36412 16.9976 1.11917L16.6787 1.10687L16.6799 6.77467L16.9664 6.7938C20.2526 7.01357 22.9098 9.65668 23.1471 12.9417L23.1674 13.2263L28.8356 13.2329L28.8225 12.913Z" stroke="#413E3B" stroke-width="1.75"/>
</g>
<defs>
<clipPath id="clip0_106_222">
<rect width="30" height="30" fill="white"/>
</clipPath>
</defs>
</svg>
