<svg width="30" height="30" viewBox="0 0 30 30" fill="none" xmlns="http://www.w3.org/2000/svg">
<path d="M27.7761 22.769C27.7761 25.7577 25.3533 28.1805 22.3646 28.1805C19.3759 28.1805 16.9531 25.7577 16.9531 22.769C16.9531 19.7804 19.3759 17.3575 22.3646 17.3575C25.3533 17.3575 27.7761 19.7804 27.7761 22.769Z" stroke="#413E3B" stroke-width="1.75"/>
<path d="M21.4891 1.88718V9.42088C21.4891 9.427 21.4883 9.43816 21.4714 9.4554C21.4523 9.47486 21.4217 9.49106 21.3852 9.49387C15.025 9.98376 9.86052 15.3836 9.86052 21.8848V28.1438C9.86052 28.1625 9.84534 28.1777 9.82661 28.1777H2.29172C2.273 28.1777 2.25781 28.1625 2.25781 28.1438V21.8848C2.25781 11.228 10.9355 2.32462 21.4859 1.87285C21.4863 1.87355 21.4867 1.87433 21.4871 1.87518C21.488 1.87739 21.4891 1.88099 21.4891 1.88718Z" stroke="#413E3B" stroke-width="1.75" stroke-linejoin="round"/>
<mask id="path-3-inside-1_111_233" fill="white">
<rect x="1.38281" y="1.61926" width="9.35097" height="27.4335" rx="0.908912"/>
</mask>
<rect x="1.38281" y="1.61926" width="9.35097" height="27.4335" rx="0.908912" stroke="#413E3B" stroke-width="3.5" mask="url(#path-3-inside-1_111_233)"/>
</svg>
