<?xml version="1.0" encoding="UTF-8"?>
<svg id="Layer_2" data-name="Layer 2" xmlns="http://www.w3.org/2000/svg" viewBox="0 0 30 30">
  <defs>
    <style>
      .cls-1, .cls-2 {
        fill: none;
      }

      .cls-2 {
        stroke: #413e3b;
        stroke-linejoin: round;
        stroke-width: 2px;
      }
    </style>
  </defs>
  <g id="Layer_1-2" data-name="Layer 1">
    <path class="cls-2" d="M14.91,28.93c-.78-.79-1.51-1.52-2.23-2.25-.96-.96-1.92-1.91-2.87-2.87-.6-.61-.49-1.04,.36-1.21,.48-.1,.98-.14,1.47-.12,1.82,.07,2.82-1.08,2.47-2.86-.37-1.82-2.18-3.51-4.02-3.76-1.65-.22-2.94,1.24-2.58,2.59,.14,.5-.07,1.12-.22,1.66-.11,.43-.47,.51-.86,.25-.08-.05-.17-.1-.24-.17-1.73-1.77-3.47-3.53-5.13-5.23C5.68,10.36,10.33,5.86,15.12,1.07c.12,.17,3.35,3.4,4.78,4.82,.12,.12,.24,.24,.37,.36,.51,.43,.87,.34,1.02-.32,.1-.48,.16-.97,.14-1.47-.07-2.07,1.28-3.09,3.27-2.49,1.05,.32,1.99,.85,2.58,1.77,.59,.92,.99,1.99,.87,3.13-.13,1.24-1.24,1.92-2.54,1.78-.55-.06-1.12,.06-1.66,.18-.39,.09-.49,.41-.24,.76,.16,.22,.33,.42,.51,.61,1.56,1.54,3.12,3.07,4.72,4.66-.19,.21-.32,.37-.46,.5-1.53,1.54-3.07,3.06-4.59,4.61-.24,.24-.36,.59-.53,.9,.37,.18,.71,.42,1.09,.52,.34,.09,.72,.03,1.08,.02,1.65-.04,2.63,1,2.47,2.66-.19,1.98-2.23,3.98-4.22,4.14-1.69,.13-2.71-.91-2.6-2.59,.03-.54-.03-1.11-.16-1.64-.12-.54-.45-.63-.87-.27-.3,.25-.57,.55-.86,.84-1.44,1.44-2.87,2.88-4.38,4.4h.02Z"/>
    <rect class="cls-1" width="30" height="30"/>
  </g>
</svg>