<?xml version="1.0" encoding="UTF-8"?>
<svg id="Layer_2" data-name="Layer 2" xmlns="http://www.w3.org/2000/svg" viewBox="0 0 30 30">
  <defs>
    <style>
      .cls-1, .cls-2, .cls-3 {
        fill: none;
      }

      .cls-4 {
        fill: #413e3b;
      }

      .cls-2 {
        stroke-linecap: round;
      }

      .cls-2, .cls-3 {
        stroke: #413e3b;
        stroke-linejoin: round;
        stroke-width: 2px;
      }
    </style>
  </defs>
  <g id="Layer_1-2" data-name="Layer 1">
    <rect class="cls-1" width="30" height="30"/>
    <g>
      <path class="cls-2" d="M6,19h5"/>
      <path class="cls-2" d="M16,19h8"/>
      <path class="cls-2" d="M6,11h11"/>
      <path class="cls-4" d="M23,13c1.1,0,2-.9,2-2s-.9-2-2-2-2,.9-2,2,.9,2,2,2Z"/>
      <path class="cls-3" d="M2.24,3H27.76c.63,0,1.24,.56,1.24,1.38V25.62c0,.81-.61,1.38-1.24,1.38H2.24c-.63,0-1.24-.56-1.24-1.38V4.38c0-.81,.61-1.38,1.24-1.38Z"/>
    </g>
  </g>
</svg>