<?xml version="1.0" encoding="utf-8"?>
<!-- Generator: Adobe Illustrator 27.7.0, SVG Export Plug-In . SVG Version: 6.00 Build 0)  -->
<svg version="1.1" id="Layer_1" xmlns="http://www.w3.org/2000/svg" xmlns:xlink="http://www.w3.org/1999/xlink" x="0px" y="0px"
	 viewBox="0 0 30 30" style="enable-background:new 0 0 30 30;" xml:space="preserve">
<style type="text/css">
	.st0{fill:#413E3B;}
</style>
<g>
	<path class="st0" d="M27,15.6c0-6.7-5.4-12.1-12-12.3l1.2-1.2l-1.4-1.4l-3,2.9c-0.2,0.2-0.3,0.4-0.3,0.7s0.1,0.5,0.3,0.7l2.8,2.9
		l1.4-1.4l-1.2-1.2C20.5,5.4,25,10,25,15.6c0,5.7-4.6,10.3-10.3,10.3h0l-14.2,0l0,2l14.2,0v0C21.5,27.9,27,22.4,27,15.6z"/>
	<path class="st0" d="M8.8,24.1c-2.7-1.9-4.5-5-4.5-8.5c0-4.2,2.5-8,6.5-9.6l-0.7-1.8c-4.7,1.9-7.7,6.3-7.7,11.4
		c0,3.3,1.3,6.3,3.4,8.5H8.8z"/>
	<path class="st0" d="M29.5,26.2l-2.7-2.8c-0.4,0.5-0.8,1-1.2,1.5l1.1,1.1h-2.5c-0.8,0.7-1.7,1.4-2.6,1.9h7.3c0.5,0,0.9-0.5,0.9-1
		C29.8,26.6,29.7,26.4,29.5,26.2z"/>
	<path class="st0" d="M10,16.2l3.3,3.3c0.1,0.1,0.1,0.1,0.2,0.1s0.1,0,0.2-0.1l6-6c0.1-0.1,0.1-0.3,0-0.4l-1.4-1.4
		c-0.1-0.1-0.3-0.1-0.4,0l-4.3,4.3L12,14.2c-0.1-0.1-0.3-0.1-0.4,0L10,15.8C9.9,15.9,9.9,16.1,10,16.2z"/>
</g>
</svg>
