<?xml version="1.0" encoding="UTF-8"?>
<svg id="Layer_2" data-name="Layer 2" xmlns="http://www.w3.org/2000/svg" viewBox="0 0 30 30">
  <defs>
    <style>
      .cls-1, .cls-2 {
        fill: none;
      }

      .cls-3 {
        fill: #413e3b;
      }

      .cls-2 {
        stroke: #413e3b;
        stroke-linejoin: round;
        stroke-width: 2px;
      }
    </style>
  </defs>
  <g id="Layer_1-2" data-name="Layer 1">
    <g>
      <path class="cls-2" d="M14.85,4.77v11.38l4.83-5.94"/>
      <path class="cls-3" d="M29.56,14.99C29.56,6.94,22.96,.39,14.85,.39S.15,6.94,.15,14.99s6.6,14.6,14.71,14.6c1.72,0,3.36-.31,4.9-.85,.91,.55,1.97,.87,3.1,.87,3.31,0,6-2.69,6-6,0-.94-.22-1.83-.61-2.62,.84-1.83,1.31-3.86,1.31-6Zm-5.71,11.62h-1.19v-4.63l-1.11,1.02-.69-.64,1.96-1.75h1.04v6Zm2.99-7.48c-1.06-.95-2.45-1.52-3.99-1.52-3.31,0-6,2.69-6,6,0,1.34,.44,2.57,1.18,3.56-1.02,.26-2.08,.41-3.18,.41-7.01,0-12.71-5.65-12.71-12.6S7.85,2.39,14.85,2.39s12.71,5.65,12.71,12.59c0,1.45-.26,2.84-.72,4.14Z"/>
    </g>
    <rect class="cls-1" width="30" height="30"/>
  </g>
</svg>