<svg width="247" height="50" viewBox="0 0 247 50" fill="none" xmlns="http://www.w3.org/2000/svg">
<g clip-path="url(#clip0_44_126)">
<path fill-rule="evenodd" clip-rule="evenodd" d="M111.813 17.9172V36.453H106.936V17.9172H100.285V13.6425H118.429V17.9172H111.813ZM132.644 34.6182C131.007 36.1227 128.416 36.9091 125.858 36.9091C120.846 36.9091 117.061 33.524 117.061 28.2241C117.061 23.4371 120.573 19.5732 125.586 19.5732C130.496 19.5732 133.837 23.2661 133.837 28.6686V29.626H121.596C121.869 31.7118 123.54 33.4557 126.336 33.4557C127.734 33.4557 129.677 32.8402 130.734 31.8144L132.644 34.6182ZM121.529 26.5988H129.643C129.541 25.0298 128.45 22.9492 125.586 22.9492C122.893 22.9492 121.733 24.9616 121.529 26.5988ZM141.377 25.3104V36.453H137.028V19.8934H141.377V22.0533C142.061 21.0591 144.252 19.482 146.786 19.482C149.217 19.482 150.757 20.6133 151.374 22.499C152.332 20.9905 154.523 19.482 157.057 19.482C160.104 19.482 161.919 21.0934 161.919 24.4875V36.453H157.536V25.996C157.536 24.4532 156.851 23.3561 155.071 23.3561C153.53 23.3561 152.264 24.3846 151.647 25.2761V36.453H147.265V25.996C147.265 24.4532 146.581 23.3561 144.8 23.3561C143.294 23.3561 142.027 24.3846 141.377 25.3104ZM170.461 34.3192V42.7486H166.112V19.8931H170.461V21.9834C171.727 20.3729 173.542 19.482 175.562 19.482C179.807 19.482 182.888 22.6344 182.888 28.1513C182.888 33.6681 179.807 36.8549 175.562 36.8549C173.611 36.8549 171.796 36.0325 170.461 34.3192ZM178.421 28.1785C178.421 25.3487 176.921 23.4053 174.687 23.4053C173.658 23.4053 172.448 23.9565 171.712 24.7383C170.971 25.5128 170.489 26.7703 170.489 28.1899C170.489 29.3756 170.825 30.4483 171.367 31.2208C171.423 31.3002 171.482 31.3782 171.545 31.455C171.632 31.5588 171.722 31.6557 171.816 31.7452C172.553 32.4631 173.705 32.9858 174.687 32.9858C176.921 32.9858 178.421 31.0424 178.421 28.1785ZM193.721 36.9091C199.202 36.9091 202.491 32.9428 202.491 28.2241C202.491 23.5396 199.202 19.5732 193.721 19.5732C188.274 19.5732 184.986 23.5396 184.986 28.2241C184.986 32.9428 188.274 36.9091 193.721 36.9091ZM193.767 32.9858C191.055 32.9858 189.544 30.7696 189.544 28.1785C189.544 25.6215 191.055 23.4053 193.767 23.4053C196.479 23.4053 198.023 25.6215 198.023 28.1785C198.023 30.7696 196.479 32.9858 193.767 32.9858Z" fill="#004789"/>
<path d="M79.0534 20.0822L75.98 17.0079C75.7526 16.7805 75.3798 16.7805 75.1525 17.0079L65.7322 26.431L61.9767 22.6745C61.7494 22.4471 61.3766 22.4471 61.1493 22.6745L57.6939 26.1309C57.4666 26.3582 57.4666 26.7312 57.6939 26.9586L64.932 34.1987C65.0502 34.317 65.1957 34.3715 65.3502 34.3715C65.5048 34.3715 65.6503 34.317 65.7685 34.1987L79.0534 20.9099C79.2807 20.6825 79.2807 20.3096 79.0534 20.0822Z" fill="#004789"/>
<path d="M58.8229 41.6665C49.7783 36.4431 46.6794 24.8744 51.9013 15.827C52.3469 15.055 52.8386 14.3264 53.3711 13.6425H48.1232C48.1228 13.6431 48.1224 13.6437 48.122 13.6444C41.695 24.7796 45.5091 39.018 56.641 45.4469C59.3699 47.0229 62.2852 47.9833 65.2262 48.3711L62.2523 43.2186C61.0821 42.8238 59.9335 42.308 58.8229 41.6665Z" fill="#00AEEF"/>
<path d="M88.4341 36.9255C84.1275 44.3869 76.3155 48.5616 68.2803 48.5699L65.656 44.0231C73.059 45.057 80.6876 41.6164 84.6548 34.7429C87.0528 30.5883 87.6961 25.902 86.8148 21.5427L89.7882 16.391C92.4487 22.8424 92.1921 30.4144 88.4341 36.9255Z" fill="#F5871F"/>
<path d="M49.823 11.0957H55.7652C61.6887 5.86753 70.514 4.73402 77.7334 8.90333C81.5341 11.0983 84.2849 14.4138 85.8096 18.1919L88.4365 13.6406C86.462 10.2129 83.5867 7.24321 79.9154 5.12296C69.6808 -0.787664 56.824 1.96071 49.823 11.0957Z" fill="#00AC65"/>
</g>
<defs>
<clipPath id="clip0_44_126">
<rect width="157.491" height="46.5699" fill="white" transform="translate(45 2)"/>
</clipPath>
</defs>
</svg>
