<svg width="247" height="50" viewBox="0 0 247 50" fill="none" xmlns="http://www.w3.org/2000/svg">
<path d="M76.3237 33.2203C75.345 33.0554 74.5319 32.7708 73.8845 32.3812C73.2371 31.9916 72.7553 31.4822 72.424 30.8529C72.0928 30.2236 71.9272 29.4445 71.9121 28.5155H75.2095C75.2396 29.0549 75.36 29.4894 75.5859 29.834C75.8117 30.1637 76.1129 30.4334 76.4893 30.6132C76.8657 30.793 77.3325 30.9278 77.8745 31.0027C78.4165 31.0776 79.0338 31.1076 79.7114 31.1076C80.6298 31.1076 81.3827 31.0627 81.9548 30.9728C82.527 30.8829 82.9786 30.748 83.2948 30.5832C83.611 30.4184 83.8369 30.2086 83.9573 29.9689C84.0778 29.7291 84.138 29.4594 84.138 29.1448C84.138 28.8301 84.0778 28.5754 83.9573 28.3806C83.8369 28.1859 83.6562 28.021 83.4454 27.9012C83.2346 27.7813 82.9636 27.6764 82.6625 27.6165C82.3613 27.5416 82.015 27.4816 81.6537 27.4367L76.6399 26.6725C75.1794 26.4328 74.0953 25.9833 73.4178 25.324C72.7402 24.6648 72.3939 23.7957 72.3939 22.7469C72.3939 22.1626 72.5144 21.6232 72.7553 21.1137C72.9962 20.6043 73.3876 20.1548 73.9598 19.7652C74.5169 19.3757 75.2848 19.076 76.2333 18.8512C77.1819 18.6265 78.3714 18.5216 79.7867 18.5216C81.0062 18.5216 82.0903 18.5965 82.9937 18.7613C83.9122 18.9262 84.68 19.1809 85.2973 19.5555C85.9147 19.93 86.3965 20.4245 86.7277 21.0538C87.059 21.6831 87.2547 22.4472 87.2999 23.3612H84.1229C84.0778 22.8368 83.9573 22.4023 83.7465 22.0876C83.5357 21.758 83.2497 21.5183 82.8733 21.3385C82.4968 21.1587 82.0602 21.0538 81.5483 20.9789C81.0364 20.9189 80.4642 20.889 79.8017 20.889C78.8983 20.889 78.1606 20.9339 77.6035 21.0388C77.0464 21.1287 76.6097 21.2636 76.3237 21.4284C76.0225 21.5932 75.8268 21.788 75.7214 21.9828C75.6311 22.1925 75.5708 22.4173 75.5708 22.642C75.5708 23.0915 75.7214 23.4361 76.0376 23.7058C76.3538 23.9755 76.8657 24.1553 77.5884 24.2602L82.4968 25.0094C83.3099 25.1293 84.0175 25.2941 84.6198 25.4739C85.2221 25.6537 85.734 25.9084 86.1405 26.2081C86.547 26.5077 86.8482 26.8973 87.0439 27.3468C87.2396 27.7963 87.345 28.3507 87.345 28.995C87.345 29.6992 87.2246 30.3285 86.9987 30.8829C86.7729 31.4372 86.3664 31.9017 85.7792 32.2913C85.207 32.6809 84.4241 32.9805 83.4454 33.1753C82.4667 33.3701 81.2321 33.475 79.7264 33.475C78.4466 33.475 77.3023 33.3851 76.3237 33.2203Z" fill="#3C3C64"/>
<path d="M98.8181 21.4284V33.1603H95.6563V21.4284H89.3777V18.8063H105.097V21.4284H98.8181Z" fill="#3C3C64"/>
<path d="M128.058 18.8063V27.3018C128.058 28.006 128.148 28.5904 128.329 29.0549C128.51 29.5194 128.781 29.8939 129.142 30.1636C129.503 30.4333 129.955 30.6281 130.497 30.733C131.039 30.8379 131.672 30.8978 132.394 30.8978C133.117 30.8978 133.749 30.8379 134.291 30.733C134.833 30.6281 135.285 30.4333 135.647 30.1636C136.008 29.8939 136.279 29.5194 136.46 29.0549C136.64 28.5904 136.731 28.006 136.731 27.3018V18.8063H139.892V27.5416C139.892 29.5493 139.29 31.0477 138.101 32.0216C136.911 32.9955 134.984 33.475 132.379 33.475C129.79 33.475 127.892 32.9955 126.688 32.0216C125.483 31.0626 124.881 29.5643 124.881 27.5416V18.8063H128.058Z" fill="#3C3C64"/>
<path d="M158.668 30.7031C158.306 31.3773 157.794 31.9167 157.147 32.3213C156.5 32.7258 155.687 33.0255 154.723 33.2053C153.759 33.3851 152.615 33.475 151.29 33.475C149.86 33.475 148.61 33.3551 147.556 33.1154C146.502 32.8756 145.629 32.4711 144.936 31.9017C144.244 31.3324 143.732 30.5682 143.4 29.6093C143.069 28.6503 142.904 27.4517 142.904 25.9833C142.904 24.47 143.084 23.2264 143.431 22.2525C143.792 21.2785 144.319 20.5144 145.027 19.96C145.734 19.4056 146.607 19.0161 147.646 18.7913C148.685 18.5815 149.905 18.4617 151.29 18.4617C152.57 18.4617 153.684 18.5516 154.633 18.7164C155.581 18.8962 156.379 19.1809 157.027 19.5704C157.674 19.96 158.186 20.4844 158.547 21.1437C158.924 21.803 159.165 22.6121 159.27 23.571H156.033C155.942 23.0166 155.762 22.5671 155.521 22.2225C155.28 21.8779 154.964 21.6082 154.557 21.4284C154.166 21.2486 153.684 21.1137 153.142 21.0538C152.6 20.9939 151.983 20.9639 151.275 20.9639C150.432 20.9639 149.679 21.0088 149.032 21.1137C148.384 21.2186 147.842 21.4434 147.405 21.788C146.969 22.1326 146.638 22.642 146.427 23.3013C146.216 23.9606 146.096 24.8596 146.096 25.9683C146.096 27.0321 146.201 27.9012 146.427 28.5455C146.638 29.2047 146.969 29.6992 147.405 30.0588C147.842 30.4184 148.384 30.6431 149.032 30.763C149.679 30.8828 150.432 30.9428 151.275 30.9428C151.968 30.9428 152.6 30.9128 153.157 30.8379C153.714 30.763 154.196 30.6281 154.602 30.4334C155.009 30.2386 155.34 29.9539 155.596 29.5943C155.852 29.2347 156.018 28.7552 156.108 28.1859H159.375C159.27 29.1897 159.029 30.0288 158.668 30.7031Z" fill="#3C3C64"/>
<path d="M170.547 21.4284V33.1603H167.386V21.4284H161.107V18.8063H176.826V21.4284H170.547Z" fill="#3C3C64"/>
<path d="M182.186 18.8063V27.3018C182.186 28.006 182.277 28.5904 182.457 29.0549C182.638 29.5194 182.909 29.8939 183.27 30.1636C183.632 30.4333 184.083 30.6281 184.625 30.733C185.167 30.8379 185.8 30.8978 186.523 30.8978C187.245 30.8978 187.878 30.8379 188.42 30.733C188.962 30.6281 189.413 30.4333 189.775 30.1636C190.136 29.8939 190.407 29.5194 190.588 29.0549C190.768 28.5904 190.859 28.006 190.859 27.3018V18.8063H194.021V27.5416C194.021 29.5493 193.418 31.0477 192.229 32.0216C191.024 32.9955 189.127 33.475 186.523 33.475C183.933 33.475 182.036 32.9955 180.831 32.0216C179.627 31.0626 179.024 29.5643 179.024 27.5416V18.8063H182.186Z" fill="#3C3C64"/>
<path d="M214.874 33.1603V18.8063H227.762V21.3085H218.036V24.7247H227.597V27.182H218.036V30.6731H227.777V33.1753H214.874V33.1603Z" fill="#3C3C64"/>
<path d="M116.645 29.0999L118.693 33.1603H122.291L119.837 28.2758L119.897 28.2308C121.328 27.3168 122.126 25.7586 122.126 23.8107C122.126 20.7541 120.048 18.7913 116.841 18.7913H107.762V33.1454H110.924V29.0399H116.63L116.645 29.0999ZM110.939 21.5333H116.961C118.226 21.5333 119.024 22.4323 119.024 23.8707C119.024 25.399 118.241 26.3429 116.961 26.3429H110.939V21.5333Z" fill="#3C3C64"/>
<path d="M206.201 29.0999L208.249 33.1603H211.847L209.393 28.2758L209.453 28.2308C210.884 27.3168 211.682 25.7586 211.682 23.8107C211.682 20.7541 209.604 18.7913 206.397 18.7913H197.318V33.1454H200.48V29.0399H206.186L206.201 29.0999ZM200.495 21.5333H206.517C207.782 21.5333 208.58 22.4323 208.58 23.8707C208.58 25.399 207.797 26.3429 206.517 26.3429H200.495V21.5333Z" fill="#3C3C64"/>
<path d="M56.0427 40.9666H43.3952C42.7327 40.9666 42.1907 40.4272 42.1907 39.768V34.6736C42.1907 34.0144 42.7327 33.475 43.3952 33.475H56.0427C56.7051 33.475 57.2472 34.0144 57.2472 34.6736V39.768C57.2472 40.4272 56.7051 40.9666 56.0427 40.9666Z" fill="url(#paint0_linear_44_127)"/>
<path d="M56.0426 29.7292H35.8669C35.2044 29.7292 34.6624 29.1898 34.6624 28.5305V23.4362C34.6624 22.7769 35.2044 22.2375 35.8669 22.2375H56.0426C56.7051 22.2375 57.2471 22.7769 57.2471 23.4362V28.5305C57.2471 29.1898 56.7051 29.7292 56.0426 29.7292Z" fill="url(#paint1_linear_44_127)"/>
<path d="M56.0425 18.4917H28.3386C27.6761 18.4917 27.134 17.9523 27.134 17.293V12.1987C27.134 11.5394 27.6761 11 28.3386 11H56.0425C56.705 11 57.2471 11.5394 57.2471 12.1987V17.293C57.2471 17.9523 56.705 18.4917 56.0425 18.4917Z" fill="url(#paint2_linear_44_127)"/>
<path d="M40.9861 29.7292H35.8669C35.2044 29.7292 34.6624 29.1898 34.6624 28.5305V23.4362C34.6624 22.7769 35.2044 22.2375 35.8669 22.2375H40.9861C41.6486 22.2375 42.1906 22.7769 42.1906 23.4362V28.5305C42.1906 29.1898 41.6486 29.7292 40.9861 29.7292Z" fill="url(#paint3_linear_44_127)"/>
<path d="M48.5144 40.9666H43.3952C42.7327 40.9666 42.1907 40.4272 42.1907 39.768V34.6736C42.1907 34.0144 42.7327 33.475 43.3952 33.475H48.5144C49.1769 33.475 49.7189 34.0144 49.7189 34.6736V39.768C49.7189 40.4272 49.1769 40.9666 48.5144 40.9666Z" fill="url(#paint4_linear_44_127)"/>
<path d="M22.843 16.2741L25.1617 13.5921C25.3274 13.3973 25.1919 13.0977 24.9359 13.0977H20.2985C20.0425 13.0977 19.907 13.3973 20.0726 13.5921L22.3913 16.2741C22.5118 16.409 22.7226 16.409 22.843 16.2741Z" fill="url(#paint5_linear_44_127)"/>
<path d="M30.3714 27.5116L32.6901 24.8296C32.8557 24.6348 32.7202 24.3351 32.4642 24.3351H27.8268C27.5708 24.3351 27.4353 24.6348 27.601 24.8296L29.9197 27.5116C30.0401 27.6465 30.2509 27.6465 30.3714 27.5116Z" fill="url(#paint6_linear_44_127)"/>
<defs>
<linearGradient id="paint0_linear_44_127" x1="26.9102" y1="6.6281" x2="53.5678" y2="42.7333" gradientUnits="userSpaceOnUse">
<stop stop-color="#91B4FF"/>
<stop offset="1" stop-color="#96D7FF"/>
</linearGradient>
<linearGradient id="paint1_linear_44_127" x1="29.8861" y1="4.43088" x2="56.5436" y2="40.5361" gradientUnits="userSpaceOnUse">
<stop stop-color="#91B4FF"/>
<stop offset="1" stop-color="#96D7FF"/>
</linearGradient>
<linearGradient id="paint2_linear_44_127" x1="32.862" y1="2.23367" x2="59.5195" y2="38.3389" gradientUnits="userSpaceOnUse">
<stop stop-color="#1464FA"/>
<stop offset="0.4791" stop-color="#238CFD"/>
<stop offset="1" stop-color="#32B4FF"/>
</linearGradient>
<linearGradient id="paint3_linear_44_127" x1="25.0306" y1="8.01582" x2="51.6882" y2="44.121" gradientUnits="userSpaceOnUse">
<stop stop-color="#1464FA"/>
<stop offset="0.4791" stop-color="#238CFD"/>
<stop offset="1" stop-color="#32B4FF"/>
</linearGradient>
<linearGradient id="paint4_linear_44_127" x1="24.4825" y1="8.42055" x2="51.14" y2="44.5258" gradientUnits="userSpaceOnUse">
<stop stop-color="#1464FA"/>
<stop offset="0.4791" stop-color="#238CFD"/>
<stop offset="1" stop-color="#32B4FF"/>
</linearGradient>
<linearGradient id="paint5_linear_44_127" x1="20.8867" y1="11.0754" x2="47.5443" y2="47.1806" gradientUnits="userSpaceOnUse">
<stop stop-color="#1464FA"/>
<stop offset="0.4791" stop-color="#238CFD"/>
<stop offset="1" stop-color="#32B4FF"/>
</linearGradient>
<linearGradient id="paint6_linear_44_127" x1="20.3386" y1="11.4802" x2="46.9961" y2="47.5854" gradientUnits="userSpaceOnUse">
<stop stop-color="#1464FA"/>
<stop offset="0.4791" stop-color="#238CFD"/>
<stop offset="1" stop-color="#32B4FF"/>
</linearGradient>
</defs>
</svg>
