<svg width="247" height="50" viewBox="0 0 247 50" fill="none" xmlns="http://www.w3.org/2000/svg">
<path d="M49.0273 37.3418C52.3403 37.3418 55.0261 34.6014 55.0261 31.2209C55.0261 27.8405 52.3403 25.1001 49.0273 25.1001C45.7143 25.1001 43.0286 27.8405 43.0286 31.2209C43.0286 34.6014 45.7143 37.3418 49.0273 37.3418Z" fill="#FF7B57"/>
<path d="M37.9273 13.433V11.0529C37.9273 10.9389 37.8829 10.8295 37.8038 10.7488C37.7248 10.6682 37.6176 10.6229 37.5058 10.6229H29.4178C29.3067 10.6238 29.2004 10.6696 29.1222 10.7501C29.0439 10.8307 29 10.9395 29 11.0529V30.4312C29.0011 27.0669 29.8166 23.7549 31.374 20.7895C32.9314 17.8242 35.1825 15.2972 37.9273 13.433V13.433Z" fill="#26D1C4"/>
<path d="M29 30.4312V36.9154C29 37.0288 29.0439 37.1376 29.1222 37.2182C29.2004 37.2987 29.3067 37.3445 29.4178 37.3455H37.5058C37.6176 37.3455 37.7248 37.3001 37.8038 37.2195C37.8829 37.1388 37.9273 37.0295 37.9273 36.9154V13.433C35.1825 15.2972 32.9314 17.8242 31.374 20.7896C29.8166 23.7549 29.0011 27.0669 29 30.4312H29Z" fill="#007AE5"/>
<path d="M37.9272 13.4331V30.4313C37.9299 27.5001 39.0451 24.684 41.0388 22.5737C43.0325 20.4634 45.7497 19.223 48.6204 19.1127C48.7293 19.1089 48.8327 19.0626 48.9091 18.9832C48.9855 18.9039 49.0291 18.7976 49.0309 18.6864V10.4301C49.0305 10.3728 49.0189 10.3162 48.9969 10.2635C48.9748 10.2109 48.9428 10.1631 48.9026 10.1232C48.8624 10.0832 48.8148 10.0517 48.7626 10.0306C48.7105 10.0095 48.6547 9.99908 48.5986 10.0001C44.7928 10.0791 41.0892 11.2705 37.9272 13.4331V13.4331Z" fill="#3CB7F7"/>
<path d="M73.3276 16.8401C69.2727 16.8401 68.2408 19.7615 68.2408 19.7615V17.6001C68.2408 17.5214 68.2102 17.446 68.1557 17.3904C68.1012 17.3348 68.0273 17.3035 67.9502 17.3035H64.9308C64.8537 17.3035 64.7798 17.3348 64.7253 17.3904C64.6708 17.446 64.6401 17.5214 64.6401 17.6001V34.0978C64.6401 34.1765 64.6708 34.2519 64.7253 34.3075C64.7798 34.3632 64.8537 34.3944 64.9308 34.3944H67.9393C68.0164 34.3944 68.0903 34.3632 68.1448 34.3075C68.1993 34.2519 68.2299 34.1765 68.2299 34.0978V25.2706C68.2299 20.959 71.6998 20.6216 72.7535 20.6216C73.7155 20.5768 74.6652 20.8556 75.4568 21.415C75.4912 21.4395 75.5302 21.4563 75.5714 21.4644C75.6125 21.4724 75.6549 21.4715 75.6957 21.4617C75.7365 21.4519 75.7749 21.4334 75.8082 21.4075C75.8415 21.3816 75.8691 21.3487 75.8892 21.3112L77.3244 18.5269C77.3568 18.4666 77.3677 18.3966 77.3551 18.3289C77.3425 18.2613 77.3072 18.2002 77.2553 18.1562C76.1221 17.2916 74.7426 16.8293 73.3276 16.8401V16.8401Z" fill="#093447"/>
<path d="M159.076 25.0334V34.0756C159.076 34.1149 159.084 34.1537 159.099 34.19C159.113 34.2262 159.135 34.2591 159.162 34.2866C159.19 34.3142 159.222 34.336 159.258 34.3507C159.294 34.3654 159.332 34.3727 159.37 34.3722H162.375C162.414 34.3722 162.452 34.3644 162.487 34.3493C162.523 34.3341 162.555 34.312 162.582 34.284C162.609 34.2561 162.63 34.223 162.645 34.1865C162.659 34.1501 162.666 34.1112 162.666 34.0719V25.0334C162.666 21.3001 161.489 16.8512 155.879 16.8512C151.439 16.8512 150.251 20.3844 150.251 20.3844C149.946 19.312 149.299 18.3743 148.412 17.7206C147.525 17.0669 146.45 16.7347 145.356 16.7771C141.461 16.7771 140.709 20.0322 140.709 20.0322V17.6001C140.709 17.5609 140.702 17.522 140.687 17.4858C140.672 17.4495 140.65 17.4167 140.623 17.3891C140.595 17.3615 140.563 17.3397 140.527 17.325C140.492 17.3104 140.453 17.3031 140.415 17.3035H137.41C137.333 17.3035 137.259 17.3348 137.205 17.3904C137.15 17.446 137.119 17.5215 137.119 17.6001V34.0979C137.119 34.1765 137.15 34.252 137.205 34.3076C137.259 34.3632 137.333 34.3944 137.41 34.3944H140.415C140.453 34.3949 140.492 34.3876 140.527 34.3729C140.563 34.3583 140.595 34.3365 140.623 34.3089C140.65 34.2813 140.672 34.2484 140.687 34.2122C140.702 34.176 140.709 34.1371 140.709 34.0979V25.026C140.709 21.9526 142.624 20.3473 144.51 20.3473C147.053 20.3473 148.194 22.7756 148.194 25.0334V34.0719C148.194 34.1112 148.202 34.15 148.216 34.1863C148.231 34.2225 148.253 34.2554 148.28 34.2829C148.308 34.3105 148.34 34.3323 148.376 34.347C148.412 34.3617 148.45 34.369 148.488 34.3685H151.493C151.57 34.3685 151.644 34.3372 151.699 34.2816C151.753 34.226 151.784 34.1506 151.784 34.0719V25.0334C151.784 22.4012 153.462 20.4177 155.686 20.4177C157.764 20.4177 159.076 22.1861 159.076 25.0334Z" fill="#093447"/>
<path d="M86.4077 16.8364C84.6605 16.8356 82.9522 17.3637 81.4991 18.3537C80.046 19.3437 78.9133 20.7513 78.2443 22.3983C77.5754 24.0452 77.4001 25.8577 77.7408 27.6063C78.0815 29.3549 78.9229 30.9611 80.1584 32.2218C81.3939 33.4824 82.9681 34.3409 84.6818 34.6885C86.3955 35.0361 88.1718 34.8574 89.786 34.1748C91.4001 33.4922 92.7796 32.3364 93.7498 30.8537C94.7201 29.3711 95.2376 27.6281 95.2369 25.8452C95.234 23.4568 94.3029 21.1671 92.6477 19.4783C90.9926 17.7894 88.7485 16.8393 86.4077 16.8364V16.8364ZM86.4077 31.295C85.3498 31.2958 84.3154 30.9763 83.4354 30.3771C82.5553 29.7779 81.8693 28.9259 81.4639 27.9288C81.0585 26.9317 80.9521 25.8343 81.1581 24.7754C81.364 23.7166 81.8731 22.7439 82.6209 21.9803C83.3688 21.2167 84.3218 20.6966 85.3594 20.4857C86.3969 20.2749 87.4725 20.3827 88.45 20.7956C89.4275 21.2086 90.263 21.908 90.8509 22.8056C91.4387 23.7031 91.7525 24.7583 91.7525 25.8378C91.7535 27.2855 91.191 28.6743 90.1888 29.699C89.1865 30.7238 87.8266 31.3005 86.4077 31.3024V31.295Z" fill="#093447"/>
<path d="M212.734 34.3796H216.709C216.765 34.3804 216.821 34.3645 216.868 34.3338C216.916 34.3031 216.954 34.2589 216.977 34.2067C217.001 34.1545 217.009 34.0964 217.001 34.0396C216.992 33.9827 216.968 33.9296 216.931 33.8865L209.642 25.2892L215.819 17.8745C215.855 17.8311 215.879 17.778 215.886 17.7214C215.894 17.6648 215.885 17.6072 215.861 17.5556C215.837 17.5039 215.8 17.4603 215.752 17.4301C215.705 17.3999 215.65 17.3842 215.594 17.3851H211.648C211.605 17.3852 211.564 17.3949 211.525 17.4135C211.487 17.4321 211.453 17.4591 211.426 17.4926L205.823 24.2178V10.9047C205.824 10.8654 205.817 10.8264 205.802 10.79C205.788 10.7536 205.767 10.7205 205.74 10.6925C205.713 10.6646 205.68 10.6424 205.645 10.6273C205.609 10.6122 205.571 10.6044 205.533 10.6044H202.528C202.49 10.6044 202.451 10.6122 202.416 10.6273C202.38 10.6424 202.348 10.6646 202.321 10.6925C202.294 10.7205 202.273 10.7536 202.258 10.79C202.244 10.8264 202.237 10.8654 202.237 10.9047V34.0979C202.237 34.1371 202.244 34.1761 202.258 34.2125C202.273 34.2489 202.294 34.282 202.321 34.31C202.348 34.3379 202.38 34.3601 202.416 34.3752C202.451 34.3904 202.49 34.3982 202.528 34.3981H205.533C205.571 34.3982 205.609 34.3904 205.645 34.3752C205.68 34.3601 205.713 34.3379 205.74 34.31C205.767 34.282 205.788 34.2489 205.802 34.2125C205.817 34.1761 205.824 34.1371 205.823 34.0979V26.3829L212.513 34.2758C212.54 34.3083 212.574 34.3343 212.612 34.3522C212.651 34.3701 212.692 34.3795 212.734 34.3796V34.3796Z" fill="#093447"/>
<path d="M171.811 34.8393C172.899 34.8684 173.976 34.6169 174.944 34.1082C175.911 33.5995 176.737 32.8499 177.345 31.929V34.0978C177.345 34.1765 177.375 34.2519 177.43 34.3075C177.484 34.3631 177.558 34.3944 177.635 34.3944H180.644C180.721 34.3944 180.795 34.3631 180.849 34.3075C180.904 34.2519 180.934 34.1765 180.934 34.0978V17.589C180.934 17.5103 180.904 17.4349 180.849 17.3792C180.795 17.3236 180.721 17.2924 180.644 17.2924H177.635C177.558 17.2924 177.484 17.3236 177.43 17.3792C177.375 17.4349 177.345 17.5103 177.345 17.589V26.5682C177.312 29.3487 175.652 31.5027 173.065 31.5027C170.478 31.5027 168.752 29.6156 168.752 26.6831V17.589C168.752 17.5497 168.744 17.5108 168.729 17.4746C168.714 17.4384 168.693 17.4055 168.665 17.3779C168.638 17.3503 168.605 17.3286 168.57 17.3139C168.534 17.2992 168.496 17.2919 168.457 17.2924H165.453C165.375 17.2924 165.302 17.3236 165.247 17.3792C165.192 17.4349 165.162 17.5103 165.162 17.589V26.8573C165.213 31.7066 167.796 34.8393 171.811 34.8393Z" fill="#093447"/>
<path d="M192.823 16.8327C191.736 16.8035 190.659 17.0545 189.691 17.5626C188.724 18.0706 187.898 18.8192 187.29 19.7392V17.5927C187.29 17.5534 187.283 17.5144 187.268 17.478C187.254 17.4416 187.233 17.4085 187.206 17.3806C187.179 17.3526 187.146 17.3304 187.111 17.3153C187.075 17.3002 187.037 17.2924 186.999 17.2924H183.99C183.952 17.2924 183.914 17.3002 183.878 17.3153C183.843 17.3304 183.811 17.3526 183.784 17.3806C183.757 17.4085 183.735 17.4416 183.721 17.478C183.706 17.5144 183.699 17.5534 183.7 17.5927V34.0978C183.699 34.1371 183.706 34.176 183.721 34.2124C183.735 34.2489 183.757 34.282 183.784 34.3099C183.811 34.3379 183.843 34.36 183.878 34.3752C183.914 34.3903 183.952 34.3981 183.99 34.3981H186.999C187.037 34.3981 187.075 34.3903 187.111 34.3752C187.146 34.36 187.179 34.3379 187.206 34.3099C187.233 34.282 187.254 34.2489 187.268 34.2124C187.283 34.176 187.29 34.1371 187.29 34.0978V25.1038C187.322 22.3233 188.983 20.1545 191.57 20.1545C194.157 20.1545 195.883 22.0415 195.883 24.974V34.0978C195.882 34.1371 195.889 34.176 195.904 34.2124C195.918 34.2489 195.939 34.282 195.966 34.3099C195.993 34.3379 196.026 34.36 196.061 34.3752C196.097 34.3903 196.135 34.3981 196.173 34.3981H199.178C199.216 34.3981 199.255 34.3903 199.29 34.3752C199.326 34.36 199.358 34.3379 199.385 34.3099C199.412 34.282 199.433 34.2489 199.448 34.2124C199.462 34.176 199.469 34.1371 199.469 34.0978V24.8294C199.407 19.9654 196.824 16.8327 192.823 16.8327Z" fill="#093447"/>
<path d="M125.46 34.8579C129.021 34.8579 130.488 32.5445 130.488 32.5445V34.0979C130.488 34.1765 130.519 34.252 130.574 34.3076C130.628 34.3632 130.702 34.3944 130.779 34.3944H133.788C133.865 34.3944 133.939 34.3632 133.993 34.3076C134.048 34.252 134.078 34.1765 134.078 34.0979V10.9047C134.079 10.8654 134.072 10.8264 134.057 10.79C134.043 10.7536 134.021 10.7205 133.994 10.6925C133.967 10.6646 133.935 10.6424 133.9 10.6273C133.864 10.6122 133.826 10.6044 133.788 10.6044H130.779C130.741 10.6044 130.703 10.6122 130.667 10.6273C130.632 10.6424 130.599 10.6646 130.572 10.6925C130.545 10.7205 130.524 10.7536 130.51 10.79C130.495 10.8264 130.488 10.8654 130.488 10.9047V19.1461C130.488 19.1461 129.035 16.8364 125.46 16.8364C124.3 16.8364 123.152 17.0695 122.081 17.5222C121.01 17.9749 120.036 18.6385 119.217 19.4751C118.397 20.3116 117.746 21.3047 117.303 22.3977C116.859 23.4908 116.631 24.6622 116.631 25.8453C116.631 27.0284 116.859 28.1998 117.303 29.2928C117.746 30.3858 118.397 31.379 119.217 32.2155C120.036 33.0521 121.01 33.7157 122.081 34.1684C123.152 34.6211 124.3 34.8542 125.46 34.8542V34.8579ZM130.805 25.8453C130.803 26.9245 130.488 27.979 129.899 28.8755C129.311 29.7721 128.475 30.4704 127.497 30.8822C126.519 31.294 125.444 31.4008 124.407 31.1891C123.37 30.9774 122.418 30.4567 121.67 29.6928C120.923 28.9289 120.415 27.9562 120.21 26.8975C120.004 25.8389 120.111 24.7419 120.517 23.7452C120.922 22.7485 121.608 21.8969 122.488 21.298C123.368 20.6992 124.402 20.3799 125.46 20.3807C126.162 20.3811 126.858 20.5229 127.507 20.7978C128.156 21.0728 128.746 21.4755 129.242 21.983C129.738 22.4905 130.132 23.0928 130.4 23.7555C130.668 24.4182 130.806 25.1283 130.805 25.8453V25.8453Z" fill="#093447"/>
<path d="M105.901 34.8578C109.462 34.8578 110.933 32.5444 110.933 32.5444V34.0978C110.933 34.1765 110.964 34.2519 111.018 34.3075C111.073 34.3631 111.147 34.3944 111.224 34.3944H114.229C114.306 34.3944 114.38 34.3631 114.434 34.3075C114.489 34.2519 114.519 34.1765 114.519 34.0978V17.6001C114.519 17.5214 114.489 17.446 114.434 17.3904C114.38 17.3347 114.306 17.3035 114.229 17.3035H111.224C111.147 17.3035 111.073 17.3347 111.018 17.3904C110.964 17.446 110.933 17.5214 110.933 17.6001V19.146C110.933 19.146 109.462 16.8364 105.901 16.8364C103.559 16.8364 101.314 17.7855 99.6578 19.475C98.002 21.1645 97.0718 23.4559 97.0718 25.8452C97.0718 28.2345 98.002 30.526 99.6578 32.2155C101.314 33.905 103.559 34.8541 105.901 34.8541V34.8578ZM111.249 25.8452C111.248 26.9243 110.933 27.9786 110.344 28.8751C109.756 29.7715 108.92 30.4699 107.943 30.8818C106.965 31.2937 105.89 31.4007 104.853 31.1893C103.816 30.9779 102.864 30.4575 102.117 29.694C101.369 28.9305 100.861 27.9581 100.655 26.8997C100.449 25.8413 100.555 24.7445 100.96 23.7477C101.365 22.751 102.051 21.8991 102.93 21.2998C103.81 20.7005 104.843 20.3806 105.901 20.3806C106.604 20.3806 107.3 20.522 107.949 20.7967C108.599 21.0714 109.189 21.4741 109.685 21.9816C110.182 22.4891 110.576 23.0916 110.844 23.7546C111.113 24.4175 111.25 25.128 111.249 25.8452V25.8452Z" fill="#093447"/>
</svg>
