<svg width="26" height="26" viewBox="0 0 26 26" fill="none" xmlns="http://www.w3.org/2000/svg">
<path d="M13 0V25.7869M0.957599 17.2623H25.0337M0.95752 9.16393H25.1475" stroke="#BCB7AF" stroke-width="1.5"/>
<circle cx="13" cy="13" r="12.25" stroke="#BCB7AF" stroke-width="1.5"/>
<path d="M19.2829 13C19.2829 16.49 18.516 19.6125 17.3133 21.8355C16.0946 24.0883 14.5358 25.25 13.0001 25.25C11.4643 25.25 9.9055 24.0883 8.6868 21.8355C7.48418 19.6125 6.71729 16.49 6.71729 13C6.71729 9.50996 7.48418 6.38749 8.6868 4.16448C9.9055 1.91172 11.4643 0.75 13.0001 0.75C14.5358 0.75 16.0946 1.91172 17.3133 4.16448C18.516 6.38749 19.2829 9.50996 19.2829 13Z" stroke="#BCB7AF" stroke-width="1.5"/>
</svg>
